<svg width="311" height="35" viewBox="0 0 311 35" fill="none" xmlns="http://www.w3.org/2000/svg">
<rect width="55" height="35" fill="white"/>
<path d="M26.6197 11.712L24.1479 23.318H21.1582L23.6301 11.712H26.6197ZM39.1982 19.2063L40.7723 14.8479L41.6777 19.2063H39.1982ZM42.5352 23.318H45.2996L42.8845 11.712H40.3341C39.7595 11.712 39.2749 12.0466 39.0605 12.5627L34.5744 23.318H37.7141L38.3373 21.5846H42.1727C42.1732 21.5846 42.5352 23.318 42.5352 23.318ZM34.7301 19.529C34.7434 16.4663 30.5142 16.2966 30.5422 14.9278C30.5512 14.5119 30.9463 14.0689 31.8096 13.9558C32.2379 13.9002 33.4192 13.8555 34.7585 14.4753L35.2824 12.0133C34.563 11.7519 33.6378 11.5 32.4859 11.5C29.5303 11.5 27.4508 13.0765 27.4342 15.336C27.4153 17.0071 28.9193 17.9387 30.0504 18.4948C31.2166 19.0637 31.6075 19.4287 31.6018 19.9368C31.5938 20.7153 30.6718 21.0599 29.8138 21.0732C28.3093 21.0965 27.438 20.6649 26.7433 20.3398L26.2004 22.884C26.8999 23.2058 28.1891 23.4857 29.5242 23.5C32.6667 23.5 34.7211 21.942 34.7301 19.529ZM22.348 11.712L17.5037 23.318H14.3437L11.9593 14.0556C11.815 13.4862 11.6891 13.2766 11.2494 13.0361C10.5306 12.644 9.3436 12.2771 8.30005 12.049L8.37057 11.712H13.4582C14.1061 11.712 14.6892 12.145 14.8373 12.8945L16.0966 19.6112L19.207 11.712H22.348V11.712Z" fill="#1A1F71"/>
<rect x="0.5" y="0.5" width="54.6818" height="34" stroke="#CDCDCD"/>
<rect x="64" width="55" height="35" fill="white"/>
<g clip-path="url(#clip0)">
<path d="M82.2772 28.9487V27.4223C82.2772 26.8371 81.9289 26.4555 81.3313 26.4555C81.0325 26.4555 80.7092 26.5573 80.485 26.8882C80.3108 26.6084 80.0616 26.4555 79.6883 26.4555C79.4395 26.4555 79.1903 26.5317 78.9911 26.8115V26.5062H78.469V28.9487H78.9915V27.6003C78.9915 27.1676 79.2157 26.9644 79.5641 26.9644C79.9124 26.9644 80.0866 27.1936 80.0866 27.6003V28.9487H80.6092V27.6003C80.6092 27.1676 80.8579 26.9644 81.1817 26.9644C81.5301 26.9644 81.7043 27.1936 81.7043 27.6003V28.9487H82.2772ZM90.0192 26.5066H89.1728V25.7689H88.6503V26.5066H88.1773V26.99H88.6503V28.1093C88.6503 28.6689 88.8745 28.9998 89.4716 28.9998C89.6958 28.9998 89.9446 28.9236 90.1187 28.8218L89.9696 28.364C89.8204 28.4657 89.6458 28.4913 89.5216 28.4913C89.2728 28.4913 89.1733 28.3388 89.1733 28.0841V26.99H90.0196V26.5066H90.0192ZM94.45 26.4555C94.1512 26.4555 93.952 26.608 93.8278 26.8115V26.5062H93.3053V28.9487H93.8278V27.5752C93.8278 27.168 94.002 26.9393 94.3258 26.9393C94.4254 26.9393 94.55 26.9649 94.6496 26.99L94.7987 26.481C94.6991 26.4555 94.5495 26.4555 94.45 26.4555ZM87.754 26.7097C87.5052 26.5317 87.1564 26.4555 86.783 26.4555C86.1855 26.4555 85.7871 26.7609 85.7871 27.2443C85.7871 27.6514 86.0859 27.8801 86.6084 27.9568L86.8572 27.9823C87.131 28.033 87.2806 28.1097 87.2806 28.2366C87.2806 28.4146 87.0814 28.542 86.733 28.542C86.3847 28.542 86.1109 28.4146 85.9363 28.2877L85.6875 28.6949C85.9613 28.8985 86.3347 29.0003 86.708 29.0003C87.4052 29.0003 87.8031 28.6693 87.8031 28.2115C87.8031 27.7788 87.4793 27.5501 86.9818 27.4738L86.733 27.4483C86.5088 27.4227 86.3347 27.372 86.3347 27.2191C86.3347 27.0411 86.5088 26.9393 86.7826 26.9393C87.0814 26.9393 87.3802 27.0667 87.5293 27.1429L87.754 26.7097ZM101.644 26.4555C101.345 26.4555 101.146 26.608 101.022 26.8115V26.5062H100.499V28.9487H101.022V27.5752C101.022 27.168 101.196 26.9393 101.52 26.9393C101.619 26.9393 101.744 26.9649 101.844 26.99L101.993 26.481C101.893 26.4555 101.744 26.4555 101.644 26.4555ZM94.9729 27.7277C94.9729 28.4653 95.4709 28.9998 96.2426 28.9998C96.591 28.9998 96.8402 28.9236 97.0889 28.72L96.8402 28.2873C96.641 28.4398 96.4418 28.5164 96.218 28.5164C95.7947 28.5164 95.4963 28.211 95.4963 27.7277C95.4963 27.2698 95.7951 26.9644 96.218 26.9389C96.4422 26.9389 96.6414 27.0151 96.8402 27.168L97.0889 26.7353C96.8402 26.5317 96.591 26.4555 96.2426 26.4555C95.4705 26.4555 94.9729 26.99 94.9729 27.7277ZM99.8021 27.7277V26.5066H99.2791V26.812C99.1049 26.5828 98.8557 26.4559 98.5324 26.4559C97.8602 26.4559 97.3377 26.99 97.3377 27.7281C97.3377 28.4657 97.8602 29.0003 98.5324 29.0003C98.8808 29.0003 99.1299 28.8729 99.2791 28.6442V28.9496H99.8017V27.7277H99.8021ZM97.8853 27.7277C97.8853 27.2949 98.159 26.9389 98.607 26.9389C99.0304 26.9389 99.3287 27.2698 99.3287 27.7277C99.3287 28.1604 99.0299 28.5164 98.607 28.5164C98.159 28.4909 97.8853 28.1604 97.8853 27.7277ZM91.6372 26.4555C90.9401 26.4555 90.4425 26.9644 90.4425 27.7277C90.4425 28.4909 90.9405 28.9998 91.6622 28.9998C92.0106 28.9998 92.3594 28.898 92.6331 28.6689L92.3844 28.2873C92.1852 28.4398 91.9364 28.5415 91.6872 28.5415C91.3634 28.5415 91.0401 28.3891 90.9655 27.9564H92.7327V27.7528C92.7573 26.9644 92.3094 26.4555 91.6372 26.4555ZM91.6372 26.9133C91.961 26.9133 92.1848 27.1169 92.2348 27.4985H90.9901C91.0397 27.168 91.2638 26.9133 91.6372 26.9133ZM104.606 27.7277V25.5398H104.084V26.812C103.91 26.5828 103.66 26.4559 103.337 26.4559C102.665 26.4559 102.142 26.99 102.142 27.7281C102.142 28.4657 102.665 29.0003 103.337 29.0003C103.685 29.0003 103.935 28.8729 104.084 28.6442V28.9496H104.606V27.7277ZM102.689 27.7277C102.689 27.2949 102.963 26.9389 103.411 26.9389C103.835 26.9389 104.133 27.2698 104.133 27.7277C104.133 28.1604 103.834 28.5164 103.411 28.5164C102.963 28.4909 102.689 28.1604 102.689 27.7277ZM85.2146 27.7277V26.5066H84.692V26.812C84.5178 26.5828 84.2687 26.4559 83.9453 26.4559C83.2732 26.4559 82.7506 26.99 82.7506 27.7281C82.7506 28.4657 83.2732 29.0003 83.9453 29.0003C84.2937 29.0003 84.5429 28.8729 84.692 28.6442V28.9496H85.2146V27.7277ZM83.2732 27.7277C83.2732 27.2949 83.5469 26.9389 83.9949 26.9389C84.4183 26.9389 84.7166 27.2698 84.7166 27.7277C84.7166 28.1604 84.4178 28.5164 83.9949 28.5164C83.5469 28.4909 83.2732 28.1604 83.2732 27.7277Z" fill="black"/>
<path d="M95.4207 7.95923H87.5796V22.3598H95.4207V7.95923Z" fill="#FF5F00"/>
<path d="M88.0772 15.1595C88.0772 12.2335 89.4215 9.63849 91.4875 7.95915C89.969 6.73766 88.0526 6 85.9616 6C81.0078 6 77 10.0963 77 15.1595C77 20.2226 81.0078 24.3189 85.9616 24.3189C88.0526 24.3189 89.9695 23.5813 91.4879 22.3598C89.4215 20.7056 88.0772 18.085 88.0772 15.1595Z" fill="#EB001B"/>
<path d="M106 15.1595C106 20.2226 101.992 24.3189 97.0383 24.3189C94.9473 24.3189 93.0304 23.5813 91.512 22.3598C93.603 20.6804 94.9223 18.0854 94.9223 15.1595C94.9223 12.2335 93.5784 9.63805 91.5124 7.95915C93.0309 6.73766 94.9477 6 97.0387 6C101.992 6 106 10.1219 106 15.1595Z" fill="#F79E1B"/>
</g>
<rect x="64.1819" y="0.5" width="54.6818" height="34" stroke="#CDCDCD"/>
<rect x="127.864" y="0.5" width="54.7991" height="34" fill="white"/>
<path d="M143.306 12.2541C142.843 11.7263 142.006 11.5 140.935 11.5H137.828C137.722 11.5 137.619 11.5377 137.538 11.6066C137.458 11.6754 137.404 11.7707 137.388 11.8754L136.094 20.0827C136.088 20.1208 136.091 20.1597 136.101 20.1968C136.112 20.2339 136.13 20.2683 136.155 20.2976C136.18 20.3268 136.211 20.3504 136.246 20.3665C136.281 20.3826 136.319 20.3909 136.358 20.3909H138.277L138.758 17.3346L138.743 17.4303C138.76 17.3258 138.813 17.2306 138.893 17.1618C138.973 17.0929 139.076 17.0551 139.181 17.0549H140.093C141.884 17.0549 143.286 16.3274 143.696 14.223C143.708 14.1607 143.719 14.1002 143.728 14.041C143.85 13.2631 143.727 12.7337 143.306 12.2543" fill="#003087"/>
<path d="M143.306 12.2541C142.843 11.7263 142.006 11.5 140.935 11.5H137.828C137.722 11.5 137.619 11.5377 137.538 11.6066C137.458 11.6754 137.404 11.7707 137.388 11.8754L136.094 20.0827C136.088 20.1208 136.091 20.1597 136.101 20.1968C136.112 20.2339 136.13 20.2683 136.155 20.2976C136.18 20.3268 136.211 20.3504 136.246 20.3665C136.281 20.3826 136.319 20.3909 136.358 20.3909H138.277L138.758 17.3346L138.743 17.4303C138.76 17.3258 138.813 17.2306 138.893 17.1618C138.973 17.0929 139.076 17.0551 139.181 17.0549H140.093C141.884 17.0549 143.286 16.3274 143.696 14.223C143.708 14.1607 143.719 14.1002 143.728 14.041C143.85 13.2631 143.727 12.7337 143.306 12.2543" fill="#003087"/>
<path d="M139.276 14.051C139.291 13.9595 139.337 13.8762 139.408 13.816C139.478 13.7559 139.568 13.7228 139.66 13.7227H142.097C142.385 13.7227 142.654 13.7415 142.9 13.7808C143.035 13.8024 143.168 13.8321 143.298 13.8698C143.447 13.9116 143.591 13.9689 143.727 14.0408C143.85 13.2627 143.727 12.7335 143.306 12.2539C142.843 11.7264 142.006 11.5001 140.935 11.5001H137.827C137.721 11.5002 137.619 11.538 137.539 11.6068C137.458 11.6756 137.405 11.7709 137.388 11.8755L136.094 20.082C136.088 20.12 136.09 20.159 136.101 20.1961C136.111 20.2332 136.13 20.2676 136.155 20.2969C136.18 20.3262 136.211 20.3497 136.246 20.3659C136.281 20.382 136.319 20.3904 136.357 20.3904H138.276L138.758 17.3338L139.276 14.051Z" fill="#003087"/>
<path d="M143.728 14.0406C143.718 14.1015 143.708 14.1622 143.696 14.2226C143.287 16.3268 141.884 17.0546 140.093 17.0546H139.181C139.075 17.0547 138.973 17.0925 138.893 17.1614C138.813 17.2302 138.76 17.3255 138.743 17.4299L138.277 20.3902L138.144 21.23C138.138 21.2634 138.14 21.2975 138.15 21.3299C138.159 21.3624 138.175 21.3925 138.197 21.4182C138.219 21.4439 138.246 21.4645 138.277 21.4786C138.307 21.4927 138.341 21.5 138.374 21.5H139.992C140.183 21.5 140.346 21.3606 140.376 21.1717L140.392 21.0892L140.697 19.1574L140.716 19.0506C140.73 18.9591 140.777 18.8757 140.848 18.8155C140.918 18.7553 141.008 18.7222 141.1 18.7223H141.342C142.909 18.7223 144.136 18.0861 144.494 16.2449C144.644 15.476 144.566 14.8334 144.171 14.3822C144.045 14.2424 143.895 14.1266 143.728 14.0406Z" fill="#009CDE"/>
<path d="M143.299 13.8699C143.236 13.8514 143.172 13.8348 143.106 13.8202C143.039 13.8055 142.971 13.7925 142.9 13.7814C142.654 13.7413 142.385 13.7225 142.096 13.7225H139.66C139.568 13.7224 139.478 13.7555 139.407 13.8157C139.337 13.876 139.29 13.9595 139.276 14.0511L138.758 17.3345L138.743 17.4299C138.76 17.3254 138.813 17.2302 138.893 17.1614C138.973 17.0925 139.075 17.0546 139.181 17.0546H140.093C141.884 17.0546 143.286 16.3271 143.696 14.2226C143.708 14.1604 143.719 14.1001 143.728 14.0406C143.62 13.984 143.507 13.9364 143.391 13.8984C143.361 13.8885 143.33 13.8791 143.299 13.8697" fill="#012169"/>
<g clip-path="url(#clip1)">
<path d="M151.482 15.9148C151.367 16.648 150.792 16.648 150.235 16.648H149.918L150.14 15.2787C150.153 15.1959 150.227 15.1351 150.313 15.1351H150.458C150.837 15.1351 151.195 15.1351 151.38 15.3454C151.49 15.4709 151.524 15.6574 151.482 15.9148ZM151.24 14.0012H149.14C148.996 14.0012 148.874 14.1028 148.851 14.2408L148.002 19.4803C147.985 19.5837 148.067 19.677 148.175 19.677H149.178C149.321 19.677 149.444 19.5754 149.466 19.4371L149.695 18.0241C149.717 17.8858 149.84 17.7842 149.983 17.7842H150.648C152.032 17.7842 152.83 17.133 153.038 15.8424C153.132 15.2778 153.042 14.8339 152.771 14.5235C152.472 14.1818 151.943 14.0012 151.24 14.0012Z" fill="#253B80"/>
<path d="M156.116 17.7947C156.019 18.3536 155.563 18.729 154.981 18.729C154.689 18.729 154.456 18.6378 154.306 18.465C154.157 18.2934 154.101 18.0494 154.148 17.7774C154.239 17.2233 154.703 16.8357 155.275 16.8357C155.561 16.8357 155.793 16.9281 155.946 17.1021C156.099 17.2784 156.159 17.5239 156.116 17.7947ZM157.518 15.8904H156.512C156.426 15.8904 156.352 15.9515 156.339 16.034L156.295 16.3078L156.224 16.2086C156.006 15.9011 155.521 15.7983 155.036 15.7983C153.925 15.7983 152.976 16.6173 152.791 17.7661C152.695 18.339 152.831 18.8872 153.165 19.2691C153.472 19.6204 153.91 19.767 154.432 19.767C155.327 19.767 155.824 19.2069 155.824 19.2069L155.779 19.4789C155.763 19.5829 155.845 19.6761 155.952 19.6761H156.858C157.002 19.6761 157.123 19.5745 157.146 19.4363L157.69 16.0873C157.707 15.9839 157.625 15.8904 157.518 15.8904Z" fill="#253B80"/>
<path d="M162.873 15.8904H161.863C161.767 15.8904 161.676 15.9369 161.621 16.0149L160.228 18.0125L159.637 16.093C159.6 15.9729 159.486 15.8904 159.357 15.8904H158.364C158.243 15.8904 158.159 16.0051 158.197 16.1156L159.31 19.2939L158.264 20.7313C158.181 20.8445 158.264 21.0004 158.406 21.0004H159.416C159.512 21.0004 159.601 20.9548 159.656 20.8785L163.017 16.1576C163.098 16.0447 163.015 15.8904 162.873 15.8904Z" fill="#253B80"/>
<path d="M166.462 15.9138C166.347 16.647 165.772 16.647 165.215 16.647H164.898L165.121 15.2777C165.134 15.1949 165.207 15.1341 165.293 15.1341H165.438C165.817 15.1341 166.175 15.1341 166.36 15.3445C166.47 15.4699 166.504 15.6564 166.462 15.9138ZM166.22 14.0002H164.119C163.976 14.0002 163.854 14.1018 163.831 14.2398L162.982 19.4793C162.965 19.5827 163.047 19.676 163.154 19.676H164.232C164.332 19.676 164.418 19.6048 164.434 19.5079L164.675 18.0228C164.697 17.8846 164.819 17.783 164.963 17.783H165.627C167.011 17.783 167.809 17.1317 168.018 15.8411C168.112 15.2765 168.022 14.8326 167.75 14.5222C167.451 14.1808 166.922 14.0002 166.22 14.0002Z" fill="#179BD7"/>
<path d="M171.095 17.7947C170.998 18.3536 170.542 18.729 169.96 18.729C169.669 18.729 169.435 18.6378 169.285 18.465C169.137 18.2934 169.081 18.0494 169.127 17.7774C169.219 17.2233 169.682 16.8357 170.254 16.8357C170.54 16.8357 170.772 16.9281 170.925 17.1021C171.079 17.2784 171.139 17.5239 171.095 17.7947ZM172.497 15.8904H171.492C171.405 15.8904 171.332 15.9515 171.319 16.034L171.275 16.3078L171.204 16.2086C170.986 15.9011 170.501 15.7983 170.016 15.7983C168.905 15.7983 167.956 16.6173 167.771 17.7661C167.675 18.339 167.811 18.8872 168.145 19.2691C168.453 19.6204 168.89 19.767 169.412 19.767C170.308 19.767 170.804 19.2069 170.804 19.2069L170.76 19.4789C170.743 19.5829 170.825 19.6761 170.933 19.6761H171.838C171.982 19.6761 172.104 19.5745 172.126 19.4363L172.67 16.0873C172.687 15.9839 172.604 15.8904 172.497 15.8904Z" fill="#179BD7"/>
<path d="M173.682 14.1439L172.82 19.4794C172.803 19.5828 172.886 19.676 172.993 19.676H173.86C174.003 19.676 174.126 19.5744 174.148 19.4362L174.998 14.1969C175.015 14.0935 174.932 14 174.825 14H173.855C173.769 14.0003 173.695 14.0614 173.682 14.1439Z" fill="#179BD7"/>
</g>
<rect x="127.864" y="0.5" width="54.7991" height="34" stroke="#CDCDCD"/>
<rect x="191.663" y="0.5" width="54.7991" height="34" fill="url(#paint0_linear)"/>
<path d="M216.318 20.8928V19.2158C214.697 20.9194 212.387 19.7279 212.387 17.5212C212.387 15.4293 214.63 14.0698 216.318 15.8442V14.1667C213.781 12.8428 211.001 14.7671 211.001 17.5207C211.001 20.3897 213.823 22.155 216.318 20.8928Z" fill="#1A1A1A"/>
<path d="M199.628 13.8928H197.663V21.1307H199.628C202.223 21.1307 203.332 19.1536 203.332 17.5203C203.332 15.3937 201.821 13.8928 199.628 13.8928ZM201.199 19.3478C200.787 19.7361 200.225 19.9126 199.36 19.9126H199.007V15.1289H199.36C200.225 15.1289 200.763 15.2789 201.199 15.7113C201.678 16.1527 201.947 16.8235 201.947 17.5208C201.947 18.218 201.678 18.8888 201.199 19.3478Z" fill="#1A1A1A"/>
<path d="M234.731 19.9131H232.269V17.9532H234.647V16.7352H232.269V15.1289H234.731V13.8928H230.926V21.1311H234.731V19.9131Z" fill="#1A1A1A"/>
<path d="M205.298 13.8928H203.954V21.1307H205.298V13.8928Z" fill="#1A1A1A"/>
<path d="M220.46 21.5018C222.526 21.5018 224.206 19.745 224.206 17.5649C224.206 15.3932 222.534 13.6279 220.46 13.6279C218.393 13.6279 216.713 15.3847 216.713 17.5649C216.713 19.7365 218.385 21.5018 220.46 21.5018Z" fill="url(#paint1_linear)"/>
<path d="M227.347 21.3253L230.329 13.8928H228.859L226.994 18.7653L225.155 13.8928H223.685L226.625 21.3253H227.347Z" fill="#1A1A1A"/>
<path d="M208.154 20.0188C207.516 20.0188 206.995 19.6922 206.684 19.0656L205.819 19.9395C207.314 22.2431 210.573 21.5458 210.573 18.9422C210.573 17.7859 210.119 17.2652 208.59 16.6823C207.784 16.3823 207.557 16.1616 207.557 15.7733C207.557 15.0053 208.775 14.5287 209.649 15.5526L210.354 14.5994C208.75 13.0899 206.18 13.8138 206.18 15.8616C206.18 16.8589 206.616 17.3796 207.876 17.8652C210.035 18.6683 209.111 20.0188 208.154 20.0188Z" fill="#1A1A1A"/>
<path d="M240.064 16.0379C240.064 13.5221 237.519 13.8843 235.621 13.8843V21.1221H236.965V18.2271H237.149L239.014 21.1221H240.663L238.493 18.0857C239.51 17.8649 240.064 17.1501 240.064 16.0379ZM237.359 17.2384H236.965V15.0406H237.376C238.224 15.0406 238.687 15.4113 238.687 16.1086C238.687 16.8501 238.225 17.2384 237.359 17.2384Z" fill="#1A1A1A"/>
<rect x="191.663" y="0.5" width="54.7991" height="34" stroke="#CDCDCD"/>
<rect x="255.462" y="0.5" width="54.7991" height="34" fill="white"/>
<path d="M267.34 19.3701L268.41 20.6001L269.52 19.3801H270.41V19.7601L269.02 21.3001L270.41 22.9501V19.3901H272.92C273.39 19.3901 274.09 19.6101 274.09 20.5901C274.09 21.9701 273.17 21.9901 272.67 21.9901H271.37V23.3301H269.51L268.38 22.0201L267.22 23.3201H263.52V19.3801L267.34 19.3701ZM278.7 19.3701H281.86V20.2201H279.66V20.9601H281.79V21.7101H279.66V22.4901H281.86V23.3201H278.7V19.3701ZM275.51 23.3201H274.54V19.3801H277.06C277.54 19.3801 278.22 19.5901 278.22 20.4401C278.22 20.9201 278.08 21.2701 277.55 21.5301C278.01 21.5801 278.18 21.8801 278.18 22.5201L278.22 23.3301H277.28L277.25 22.6101C277.24 22.2801 277.11 21.9401 276.78 21.9401H275.51V23.3201ZM287.94 20.9001C289.13 20.9601 289.23 21.5501 289.23 22.1901C289.23 22.9301 288.62 23.3201 287.99 23.3201H285.96V22.4801H287.54C287.81 22.4801 288.21 22.4801 288.21 22.1001C288.21 21.9201 288.14 21.8101 287.85 21.7701C287.63 21.7501 287.41 21.7301 287.18 21.7201C286.11 21.6901 285.86 21.1601 285.86 20.5101C285.86 19.7701 286.38 19.3701 287.01 19.3701H289.04V20.2201H287.55C287.21 20.2201 286.85 20.1801 286.85 20.5601C286.85 20.8001 287.03 20.8501 287.26 20.8701C287.34 20.8801 287.87 20.9001 287.94 20.9001ZM284.31 20.9001C285.5 20.9601 285.6 21.5501 285.6 22.1901C285.6 22.9301 284.99 23.3201 284.36 23.3201H282.33V22.4801H283.91C284.18 22.4801 284.58 22.4801 284.58 22.1001C284.58 21.9201 284.51 21.8101 284.22 21.7701C284.09 21.7501 283.62 21.7301 283.55 21.7201C282.48 21.6901 282.23 21.1601 282.23 20.5101C282.23 19.7701 282.75 19.3701 283.38 19.3701H285.41V20.2201H283.92C283.58 20.2201 283.22 20.1801 283.22 20.5601C283.22 20.8001 283.4 20.8501 283.63 20.8701C283.72 20.8801 284.24 20.9001 284.31 20.9001ZM271.56 16.5401H270.59V12.6001H273.11C273.59 12.6001 274.27 12.8101 274.27 13.6601C274.27 14.1401 274.13 14.4901 273.6 14.7501C274.06 14.8001 274.23 15.1001 274.23 15.7401L274.26 16.5501H273.32L273.29 15.8301C273.28 15.5001 273.15 15.1601 272.82 15.1601H271.55L271.56 16.5401ZM274.76 16.5401H275.73V12.6001H274.76V16.5401ZM266.88 12.6001H270.04V13.4501H267.85V14.1901H269.98V14.9401H267.85V15.7201H270.04V16.5501H266.88V12.6001ZM259.81 16.5401H261.76V13.6201L263.05 16.5401H263.93L265.25 13.6601V16.5401H266.22V12.6001H264.68L263.49 15.2401L262.31 12.6001H260.79V16.4001L259.1 12.6001H257.82L256.1 16.5401H257.12L257.5 15.6601H259.43L259.81 16.5401ZM281.3 15.6701H279.37L278.99 16.5501H277.71C276.64 16.5501 276.16 15.6501 276.18 14.5601C276.21 12.9401 277.17 12.6001 277.61 12.6001H278.87V13.4601H278.27C277.63 13.4601 277.13 13.5301 277.13 14.4501V14.7401C277.13 15.4301 277.5 15.6001 277.73 15.6501C277.79 15.6601 277.89 15.6701 277.93 15.6701H278.35L279.68 12.6201H280.96L282.61 16.3201V12.6201H284.04L285.67 15.3501V12.6001H286.64V16.5501H285.32L283.58 13.6601V16.5501H281.67L281.3 15.6701Z" fill="#00ACEC"/>
<path d="M289.05 18.76V1.21997H256.18V14.79L257.41 12.01H259.5L260.19 13.66V12.01H262.74L263.51 13.65L264.27 12.01H273.26C273.61 12.01 274.09 12.13 274.3 12.52V12.01H276.18V12.61C276.43 12.28 276.8 12.01 277.52 12.01H281.36L282.06 13.61V12.01H284.33L285.14 13.4V12.01H287.22V17.15H284.99L284.06 15.64V17.15H281.23L280.77 16.15H279.87L279.45 17.15H277.67C277.28 17.12 276.39 16.96 276.19 16.36V17.15H272.78V16.02C272.78 15.86 272.64 15.67 272.45 15.67H272.08V17.15H264.81V15.99L264.26 17.15H262.78L262.22 15.97V17.15H259.32L258.93 16.24H258L257.6 17.15H256.18V33.74H289.05V23.56C288.87 23.75 288.59 23.91 288.17 23.91H285.42V23.52C285.21 23.75 284.91 23.91 284.43 23.91H276.7V22.84C276.68 22.7 276.75 22.4 276.37 22.4H276.05V23.91H273.99V22.17C273.78 22.52 273.32 22.54 273.02 22.56H271.93V23.92H269.19L268.4 22.95L267.56 23.92H262.89V18.77H267.62L268.45 19.7L269.3 18.77H273.05C273.31 18.79 273.81 18.91 274 19.19V18.77H277.2C277.48 18.77 278.03 18.89 278.26 19.26V18.77H282.27V19.23C282.48 18.95 282.82 18.77 283.33 18.77H285.9V19.21C286.09 18.93 286.6 18.77 286.9 18.77H289.05V18.76ZM298.1 18.31C298.1 18.97 295.59 18.24 295.59 19.84C295.59 20.57 296.18 20.9 296.85 20.9C297.37 20.9 297.78 20.79 298.18 20.42L298.32 20.8H299.59C299.52 20.66 299.51 20.48 299.51 20.28V18.63C299.51 17.79 299.41 17.17 297.74 17.17C296.35 17.17 295.82 17.61 295.82 18.35H297.17C297.2 18.05 297.47 18.01 297.66 18.01C297.79 18.03 298.1 18.06 298.1 18.31ZM305.38 20.33V20.8H306.64V15.96H305.24V17.64C304.94 17.29 304.63 17.18 304.19 17.18C303.35 17.18 302.7 17.94 302.7 19.11C302.7 20.11 303.24 20.91 304.3 20.91C304.74 20.91 305.05 20.77 305.38 20.33ZM302.33 18.39V17.2C302.27 17.19 302.21 17.18 302.15 17.18C301.61 17.18 301.26 17.44 301.07 17.99H301.06V17.28H299.79V20.8H301.19V19.41C301.19 18.65 301.48 18.38 302.05 18.38L302.33 18.39ZM293.98 17.8C293.93 17.3 293.62 17.01 293.12 17.01C292.56 17.01 292.22 17.49 292.22 18.42C292.22 19.1 292.37 19.74 293.17 19.74C293.68 19.74 293.92 19.38 293.99 18.92H295.52C295.38 20.17 294.48 20.92 293.21 20.92C291.61 20.92 290.64 19.94 290.64 18.36C290.64 16.79 291.7 15.82 293.06 15.82C294.54 15.82 295.37 16.55 295.5 17.8H293.98Z" fill="#00ACEC"/>
<path d="M271.37 21.1699H272.58C272.98 21.1699 273.12 20.9399 273.12 20.6799C273.12 20.4899 272.99 20.2299 272.59 20.2299H271.38V21.1699H271.37ZM266.69 20.2199H264.49V20.9599H266.62V21.7099H264.49V22.4899H266.72L267.78 21.2999L266.84 20.2299L266.69 20.2199ZM275.51 21.1199H276.72C277.12 21.1199 277.26 20.9399 277.26 20.6799C277.26 20.4899 277.13 20.2299 276.73 20.2299H275.52V21.1199H275.51ZM271.56 14.3399H272.77C273.17 14.3399 273.31 14.1599 273.31 13.8999C273.31 13.7099 273.18 13.4499 272.78 13.4499H271.57V14.3399H271.56ZM259.06 14.8199H257.88L258.46 13.4399L259.06 14.8199ZM280.32 13.4399L279.74 14.8199H280.92L280.32 13.4399Z" fill="white"/>
<path d="M309.24 21.8899L297.4 33.7199H299.08L309.24 23.5599V21.8899Z" fill="#3B4095"/>
<path d="M309.24 25.2L300.71 33.7299H302.39L309.24 26.8899V25.2Z" fill="#00ACEC"/>
<path d="M309.24 28.51L304.03 33.72H305.71L309.24 30.19V28.51Z" fill="#6CB35E"/>
<path d="M290.25 31.86C290.25 31.61 290.3 31.37 290.39 31.14C290.48 30.91 290.62 30.71 290.8 30.53C290.97 30.36 291.18 30.22 291.41 30.13C291.64 30.04 291.88 29.99 292.13 29.99C292.38 29.99 292.62 30.04 292.84 30.13C293.07 30.22 293.27 30.36 293.45 30.53C293.62 30.7 293.76 30.91 293.85 31.14C293.94 31.37 293.99 31.61 293.99 31.85C293.99 32.1 293.94 32.34 293.85 32.57C293.76 32.8 293.62 33 293.45 33.18C293.28 33.35 293.07 33.49 292.84 33.59C292.61 33.68 292.37 33.73 292.12 33.73C291.87 33.73 291.63 33.68 291.4 33.59C291.17 33.5 290.97 33.36 290.79 33.18C290.62 33.01 290.48 32.8 290.38 32.57C290.3 32.35 290.25 32.11 290.25 31.86Z" fill="#00ACEC"/>
<path d="M293.77 31.86C293.77 31.64 293.73 31.43 293.65 31.23C293.57 31.03 293.45 30.85 293.29 30.7C293.14 30.55 292.96 30.43 292.76 30.34C292.56 30.26 292.35 30.22 292.13 30.22C291.91 30.22 291.7 30.26 291.5 30.34C291.3 30.42 291.12 30.54 290.97 30.7C290.82 30.85 290.7 31.03 290.61 31.23C290.53 31.43 290.48 31.64 290.48 31.86C290.48 32.3 290.65 32.71 290.96 33.02C291.27 33.33 291.69 33.5 292.12 33.5C292.56 33.5 292.97 33.33 293.28 33.02C293.6 32.71 293.77 32.3 293.77 31.86Z" fill="white"/>
<path d="M293.06 32.9101H292.76L292.16 31.9401H291.69V32.9101H291.43V30.8201H292.34C292.52 30.8201 292.69 30.8301 292.85 30.9201C293.01 31.0101 293.08 31.1901 293.08 31.3701C293.08 31.7801 292.79 31.9301 292.42 31.9401L293.06 32.9101Z" fill="#00ACEC"/>
<path d="M292.08 31.7399C292.37 31.7399 292.83 31.7899 292.83 31.3599C292.83 31.0399 292.55 30.9999 292.29 30.9999H291.69V31.7399H292.08ZM298.1 19.2499C298.1 19.9099 297.9 20.1199 297.41 20.1199C297.13 20.1199 296.97 19.9999 296.97 19.8199C296.96 19.3599 297.64 19.4699 298.1 19.2499ZM305.28 19.0799C305.28 19.4899 305.13 19.8999 304.64 19.8999C304.18 19.8999 304.09 19.4699 304.09 19.0999C304.09 18.7099 304.22 18.2699 304.68 18.2699C305.15 18.2599 305.28 18.6899 305.28 19.0799Z" fill="white"/>
<rect x="255.462" y="0.5" width="54.7991" height="34" stroke="#CDCDCD"/>
<defs>
<linearGradient id="paint0_linear" x1="195" y1="3" x2="247" y2="32" gradientUnits="userSpaceOnUse">
<stop stop-color="#DFDDE2"/>
<stop offset="1" stop-color="#D7DDE2"/>
</linearGradient>
<linearGradient id="paint1_linear" x1="217.81" y1="14.7806" x2="223.372" y2="20.0732" gradientUnits="userSpaceOnUse">
<stop stop-color="#DC370D"/>
<stop offset="1" stop-color="#F99D21"/>
</linearGradient>
<clipPath id="clip0">
<rect width="29" height="23" fill="white" transform="translate(77 6)"/>
</clipPath>
<clipPath id="clip1">
<rect width="27" height="7" fill="white" transform="translate(148 14)"/>
</clipPath>
</defs>
</svg>
